<svg width="16" height="15" viewBox="0 0 16 15" fill="none" xmlns="http://www.w3.org/2000/svg">
<path d="M8.00021 12.2292L4.12521 14.5625C4.0141 14.6319 3.89604 14.6632 3.77104 14.6563C3.64604 14.6493 3.53493 14.6111 3.43771 14.5417C3.34049 14.4722 3.26757 14.3819 3.21896 14.2708C3.17035 14.1597 3.15993 14.0347 3.18771 13.8958L4.20854 9.47917L0.791876 6.5C0.680765 6.40278 0.614793 6.29514 0.593959 6.17708C0.573126 6.05903 0.576598 5.94445 0.604376 5.83334C0.632154 5.72222 0.694654 5.62847 0.791876 5.55208C0.889098 5.4757 1.00715 5.43056 1.14604 5.41667L5.66688 5.02083L7.41688 0.854168C7.47243 0.729168 7.55576 0.635418 7.66688 0.572918C7.77799 0.510418 7.8891 0.479168 8.00021 0.479168C8.11132 0.479168 8.22243 0.510418 8.33354 0.572918C8.44465 0.635418 8.52799 0.729168 8.58354 0.854168L10.3335 5.02083L14.8544 5.41667C14.9933 5.43056 15.1113 5.4757 15.2085 5.55208C15.3058 5.62847 15.3683 5.72222 15.396 5.83334C15.4238 5.94445 15.4273 6.05903 15.4065 6.17708C15.3856 6.29514 15.3197 6.40278 15.2085 6.5L11.7919 9.47917L12.8127 13.8958C12.8405 14.0347 12.8301 14.1597 12.7815 14.2708C12.7328 14.3819 12.6599 14.4722 12.5627 14.5417C12.4655 14.6111 12.3544 14.6493 12.2294 14.6563C12.1044 14.6632 11.9863 14.6319 11.8752 14.5625L8.00021 12.2292Z" fill="#FED430"/>
</svg>
